Release info:

General
Format                                   : Matroska
Format version                           : Version 4 / Version 2
File size                                : 691 MiB
Duration                                 : 2h 23mn
Overall bit rate                         : 673 Kbps
Movie name                               : David 2013 SCAMRip Hindi

Video
ID                                       : 1
Format                                   : MPEG-4 Visual
Format profile                           : Advanced Simple@L5
Format settings, BVOP                    : Yes
Format settings, QPel                    : No
Format settings, GMC                     : No warppoints
Format settings, Matrix                  : Default (H.263)
Codec ID                                 : V_MS/VFW/FOURCC / XVID
Codec ID/Hint                            : XviD
Duration                                 : 2h 23mn
Bit rate                                 : 531 Kbps
Width                                    : 576 pixels
Height                                   : 272 pixels
Display aspect ratio                     : 2.118
Frame rate mode                          : Constant
Frame rate                               : 25.000 fps
Color space                              : YUV
Chroma subsampling                       : 4:2:0
Bit depth                                : 8 bits
Scan type                                : Progressive
Compression mode                         : Lossy
Bits/(Pixel*Frame)                       : 0.136
Stream size                              : 546 MiB (79%)
Title                                    : David 2013 SCAMRip Hindi
Language                                 : Hindi
Default                                  : Yes
Forced                                   : No

Audio
ID                                       : 2
Format                                   : AC-3
Format/Info                              : Audio Coding 3
Mode extension                           : CM (complete main)
Format settings, Endianness              : Big
Codec ID                                 : A_AC3
Duration                                 : 2h 23mn
Bit rate mode                            : Constant
Bit rate                                 : 128 Kbps
Channel(s)                               : 2 channels
Channel positions                        : Front: L R
Sampling rate                            : 48.0 KHz
Bit depth                                : 16 bits
Compression mode                         : Lossy
Stream size                              : 132 MiB (19%)
Title                                    : David 2013 SCAMRip Hindi
Language                                 : Hindi
Default                                  : Yes
Forced                                   : No



Source:
credit to original movie ripper XDN (Thanks)

IMDB Info:

The plot revolves around the lives of three different men named David, who are about to take a step which is going to change their lives forever.

Director: Bejoy Nambiar
Writers: Bejoy Nambiar (screenplay), Bejoy Nambiar (story), 
Stars: 'Chiyaan' Vikram, Neil Nitin Mukesh, Jiiva

Genres: Crime | Drama | Romance
 
http://www.imdb.com/title/tt2358412/

Screen Shot:
 
http://www.shotpix.com/images/92572084817011779553.png 
http://www.shotpix.com/images/09983373504466986945.png 
http://www.shotpix.com/images/41146124845127523261.png 
http://www.shotpix.com/images/59461098765200772140.png